<svg width="33" height="31" viewBox="0 0 33 31" fill="none" xmlns="http://www.w3.org/2000/svg">
<path d="M12.4089 28.9999C13.1423 28.9999 13.7369 28.4243 13.7369 27.7142C13.7369 27.0041 13.1423 26.4285 12.4089 26.4285C11.6755 26.4285 11.081 27.0041 11.081 27.7142C11.081 28.4243 11.6755 28.9999 12.4089 28.9999Z" stroke="#FFCB47" stroke-width="3" stroke-linecap="round" stroke-linejoin="round"/>
<path d="M27.0162 28.9999C27.7496 28.9999 28.3442 28.4243 28.3442 27.7142C28.3442 27.0041 27.7496 26.4285 27.0162 26.4285C26.2828 26.4285 25.6883 27.0041 25.6883 27.7142C25.6883 28.4243 26.2828 28.9999 27.0162 28.9999Z" stroke="#FFCB47" stroke-width="3" stroke-linecap="round" stroke-linejoin="round"/>
<path d="M1.78546 2H7.0972L10.6561 19.2157C10.7775 19.8077 11.1101 20.3394 11.5956 20.7178C12.0812 21.0962 12.6887 21.2973 13.3119 21.2857H26.2194C26.8426 21.2973 27.4502 21.0962 27.9357 20.7178C28.4213 20.3394 28.7539 19.8077 28.8753 19.2157L31 8.42857H8.42513" stroke="#FFCB47" stroke-width="3" stroke-linecap="round" stroke-linejoin="round"/>
</svg>
