<svg width="183" height="42" viewBox="0 0 183 42" fill="none" xmlns="http://www.w3.org/2000/svg">
<path d="M23.8498 0C23.8498 0 27.6821 9.07726 11.2577 15.1744C2.3331 18.4865 -4.52153 26.9758 3.66289 40.0895C4.3407 34.2279 7.24707 21.3037 19.7443 18.3546C19.7443 18.3546 8.11264 22.5657 7.08513 41.6277C13.062 42.4402 27.0794 42.9861 31.2412 31.2085C36.7368 15.6476 23.8498 0 23.8498 0Z" fill="#8DCE97"/>
<path d="M7.09055 41.5484C19.7789 36.6455 29.0113 25.16 30.2855 11.4489C27.6915 4.67443 23.8498 0 23.8498 0C23.8498 0 27.6821 9.07726 11.2577 15.1744C2.3331 18.4865 -4.52153 26.9758 3.66289 40.0895C4.3407 34.2279 7.24707 21.3037 19.7443 18.3546C19.7436 18.3546 8.14654 22.5553 7.09055 41.5484Z" fill="#8DCE97"/>
<path d="M2.39675 15.4771C3.05186 15.4771 3.58293 14.9629 3.58293 14.3286C3.58293 13.6943 3.05186 13.1802 2.39675 13.1802C1.74165 13.1802 1.21057 13.6943 1.21057 14.3286C1.21057 14.9629 1.74165 15.4771 2.39675 15.4771Z" fill="#8DCE97"/>
<path d="M6.12457 14.0005C6.59249 14.0005 6.97181 13.6332 6.97181 13.1802C6.97181 12.7271 6.59249 12.3599 6.12457 12.3599C5.65666 12.3599 5.27734 12.7271 5.27734 13.1802C5.27734 13.6332 5.65666 14.0005 6.12457 14.0005Z" fill="#8DCE97"/>
<path d="M5.3621 7.43791C6.53189 7.43791 7.48019 6.51976 7.48019 5.38717C7.48019 4.25458 6.53189 3.33643 5.3621 3.33643C4.19232 3.33643 3.24402 4.25458 3.24402 5.38717C3.24402 6.51976 4.19232 7.43791 5.3621 7.43791Z" fill="#8DCE97"/>
<path d="M11.8859 10.7192C12.2603 10.7192 12.5637 10.4254 12.5637 10.063C12.5637 9.70055 12.2603 9.40674 11.8859 9.40674C11.5116 9.40674 11.2081 9.70055 11.2081 10.063C11.2081 10.4254 11.5116 10.7192 11.8859 10.7192Z" fill="#8DCE97"/>
<path d="M17.563 8.25827C18.6392 8.25827 19.5117 7.41356 19.5117 6.37157C19.5117 5.32957 18.6392 4.48486 17.563 4.48486C16.4868 4.48486 15.6144 5.32957 15.6144 6.37157C15.6144 7.41356 16.4868 8.25827 17.563 8.25827Z" fill="#8DCE97"/>
<g opacity="0.8">
<path opacity="0.8" d="M52.3809 37.8958C50.48 37.8958 48.7619 37.4962 47.2266 36.6969C45.7094 35.8977 44.5123 34.7943 43.6349 33.3869C42.7759 31.9621 42.3463 30.3723 42.3463 28.6174C42.3463 26.8625 42.7759 25.2813 43.6349 23.8739C44.5123 22.4491 45.7186 21.3371 47.2539 20.5378C48.7894 19.7386 50.5075 19.3389 52.4084 19.3389C53.834 19.3389 55.1501 19.5648 56.3564 20.0166C57.5628 20.4683 58.5863 21.1286 59.4272 21.9974L58.1386 23.2223C56.6397 21.7802 54.748 21.0591 52.4633 21.0591C50.9461 21.0591 49.5662 21.3892 48.3232 22.0495C47.0803 22.7097 46.1024 23.6133 45.3896 24.76C44.6951 25.9068 44.3477 27.1926 44.3477 28.6174C44.3477 30.0422 44.6951 31.3279 45.3896 32.4747C46.1024 33.6215 47.0803 34.525 48.3232 35.1853C49.5662 35.8455 50.9461 36.1757 52.4633 36.1757C54.7663 36.1757 56.658 35.4459 58.1386 33.9864L59.4272 35.2113C58.5863 36.0801 57.5537 36.7491 56.3291 37.2182C55.1227 37.67 53.8067 37.8958 52.3809 37.8958Z" fill="#213E26"/>
<path opacity="0.8" d="M68.1716 23.9258C70.0542 23.9258 71.4982 24.3776 72.5035 25.2811C73.5088 26.1673 74.0114 27.4878 74.0114 29.2427V37.7393H72.1471V35.6021C71.7084 36.3145 71.0595 36.8705 70.2005 37.2701C69.3596 37.6698 68.3544 37.8696 67.1846 37.8696C65.5761 37.8696 64.2967 37.5047 63.3462 36.7749C62.3957 36.0452 61.9205 35.0808 61.9205 33.8819C61.9205 32.7178 62.3592 31.7795 63.2365 31.0671C64.1321 30.3547 65.5487 29.9985 67.4862 29.9985H72.0648V29.1645C72.0648 27.983 71.7175 27.0881 71.0229 26.48C70.3284 25.8545 69.314 25.5417 67.9797 25.5417C67.0658 25.5417 66.1884 25.6894 65.3476 25.9848C64.5069 26.2628 63.7848 26.6538 63.1816 27.1577L62.3043 25.7763C63.0355 25.1855 63.9128 24.7338 64.9364 24.421C65.96 24.0909 67.0383 23.9258 68.1716 23.9258ZM67.4862 36.4101C68.5828 36.4101 69.5242 36.1755 70.3102 35.7063C71.096 35.2198 71.6809 34.5248 72.0648 33.6213V31.3799H67.541C65.0735 31.3799 63.8396 32.1965 63.8396 33.8298C63.8396 34.6291 64.1595 35.2633 64.7993 35.7324C65.439 36.1842 66.3347 36.4101 67.4862 36.4101Z" fill="#213E26"/>
<path opacity="0.8" d="M83.1644 37.8696C81.9946 37.8696 80.8704 37.7132 79.792 37.4004C78.7319 37.0703 77.9003 36.662 77.2971 36.1755L78.1744 34.7159C78.7776 35.1677 79.5362 35.5413 80.4501 35.8367C81.364 36.1147 82.3144 36.2537 83.3014 36.2537C84.6175 36.2537 85.5862 36.0625 86.2076 35.6803C86.8473 35.2806 87.1672 34.7246 87.1672 34.0122C87.1672 33.5084 86.9936 33.1174 86.6464 32.8394C86.299 32.544 85.8604 32.3268 85.3303 32.1878C84.8003 32.0314 84.0965 31.8838 83.2192 31.7448C82.0494 31.5363 81.1081 31.3277 80.3952 31.1192C79.6824 30.8934 79.0701 30.5198 78.5583 29.9985C78.0648 29.4773 77.818 28.7562 77.818 27.8353C77.818 26.6885 78.3207 25.7502 79.3259 25.0205C80.3313 24.2907 81.7295 23.9258 83.5208 23.9258C84.4529 23.9258 85.3852 24.0475 86.3173 24.2907C87.2495 24.5166 88.0171 24.8207 88.6203 25.2029L87.7704 26.6885C86.5823 25.9066 85.1658 25.5157 83.5208 25.5157C82.2779 25.5157 81.3365 25.7242 80.6968 26.1412C80.0754 26.5582 79.7647 27.1055 79.7647 27.7832C79.7647 28.3044 79.9383 28.7214 80.2855 29.0342C80.6512 29.347 81.0989 29.5815 81.629 29.7379C82.1591 29.8769 82.8901 30.0246 83.8224 30.181C84.9739 30.3895 85.8969 30.598 86.5915 30.8065C87.2861 31.015 87.8801 31.3712 88.3736 31.8751C88.8671 32.379 89.1139 33.074 89.1139 33.9601C89.1139 35.159 88.5838 36.1147 87.5237 36.8271C86.4818 37.5221 85.0287 37.8696 83.1644 37.8696Z" fill="#213E26"/>
<path opacity="0.8" d="M97.7574 23.9258C99.64 23.9258 101.084 24.3776 102.089 25.2811C103.095 26.1673 103.597 27.4878 103.597 29.2427V37.7393H101.733V35.6021C101.294 36.3145 100.645 36.8705 99.7863 37.2701C98.9454 37.6698 97.9402 37.8696 96.7704 37.8696C95.1619 37.8696 93.8825 37.5047 92.932 36.7749C91.9815 36.0452 91.5062 35.0808 91.5062 33.8819C91.5062 32.7178 91.945 31.7795 92.8223 31.0671C93.7179 30.3547 95.1345 29.9985 97.072 29.9985H101.651V29.1645C101.651 27.983 101.303 27.0881 100.609 26.48C99.9141 25.8545 98.8998 25.5417 97.5655 25.5417C96.6515 25.5417 95.7742 25.6894 94.9334 25.9848C94.0927 26.2628 93.3706 26.6538 92.7674 27.1577L91.8901 25.7763C92.6213 25.1855 93.4986 24.7338 94.5221 24.421C95.5458 24.0909 96.6241 23.9258 97.7574 23.9258ZM97.072 36.4101C98.1686 36.4101 99.11 36.1755 99.8959 35.7063C100.682 35.2198 101.267 34.5248 101.651 33.6213V31.3799H97.1268C94.6593 31.3799 93.4254 32.1965 93.4254 33.8298C93.4254 34.6291 93.7453 35.2633 94.3851 35.7324C95.0248 36.1842 95.9205 36.4101 97.072 36.4101Z" fill="#213E26"/>
<path opacity="0.8" d="M117.384 37.7395L123.141 24.2909C123.497 23.4569 123.744 22.7271 123.744 22.1277C123.744 20.8766 122.894 19.2607 120.619 19.2607C118.974 19.2607 117.575 20.1729 117.575 21.8149C117.575 23.2223 118.781 24.3691 120.317 24.3691C121.935 24.3691 122.675 23.3005 122.675 22.1798C122.675 21.1373 122.072 20.5899 121.277 20.3293C121.113 20.2772 121.058 20.199 121.058 20.0687C121.058 19.9384 121.167 19.8341 121.305 19.8341C121.386 19.8341 121.496 19.8602 121.606 19.8862C122.401 20.0947 123.224 20.8766 123.224 22.1537C123.224 22.9878 122.675 24.1606 122.209 25.2031L118.864 32.8135H118.453L113.463 19.9123H115.684V19.4953H105.951V19.9123H107.541L113.765 35.8369C114.231 37.0358 114.917 37.7395 116.259 37.7395H117.384Z" fill="#213E26"/>
<path opacity="0.8" d="M133.028 37.3744C130.67 37.3744 130.122 35.4457 130.122 32.5527H131.931C135.113 32.5527 137.963 31.7187 137.963 28.9821C137.963 26.0109 134.838 25.0205 131.685 25.0205C127.326 25.0205 124.557 27.4443 124.557 31.5102C124.557 35.8106 127.408 37.9999 132.206 37.9999C135.469 37.9999 137.497 36.2537 138.018 33.4649L137.525 33.3867L137.471 33.6213C136.977 35.9149 135.194 37.3744 133.028 37.3744ZM130.095 30.207C130.095 26.1673 130.67 25.4896 131.685 25.4896C132.425 25.4896 132.974 26.1933 132.974 28.956C132.974 30.8586 132.508 32.0836 130.78 32.0836H130.095V30.207Z" fill="#213E26"/>
<path opacity="0.8" d="M145.836 27.1316V25.0205C143.999 25.3854 142.244 25.5157 140.352 25.5157H138.708V25.9327H140.654V37.0877H138.954V37.5047H147.783V37.0877H145.726V31.9011C145.726 27.7832 146.795 25.4896 149.098 25.4896C150.113 25.4896 150.716 26.0109 150.963 26.3236C151.073 26.48 151.128 26.5843 151.128 26.7146C151.128 26.871 151.017 26.9491 150.881 26.9491C150.689 26.9491 150.606 26.7406 150.442 26.5582C150.278 26.3758 149.867 26.0369 149.236 26.0369C148.167 26.0369 147.426 26.8449 147.426 27.8874C147.426 29.0603 148.386 29.8421 149.565 29.8421C151.045 29.8421 151.895 28.7475 151.895 27.4965C151.895 26.1412 150.716 25.0205 149.072 25.0205C147.59 25.0205 146.521 25.9327 145.973 27.1316H145.836Z" fill="#213E26"/>
<path opacity="0.8" d="M166.715 19C164.879 19.3649 163.124 19.4952 161.232 19.4952H159.588V19.9122H161.534V26.8711H161.397C160.766 25.6461 159.643 25.0206 157.943 25.0206C153.994 25.0206 152.596 27.7572 152.596 31.5103C152.596 35.0027 154.159 38 157.558 38C159.477 38 160.684 37.4005 161.397 35.7064H161.534V37.5048H168.415V37.0878H166.715V19ZM161.643 31.5103C161.643 33.882 160.985 36.8272 159.56 36.8272C158.326 36.8272 158.135 34.4554 158.135 31.5103C158.135 27.8093 158.491 25.9849 159.56 25.9849C160.574 25.9849 161.643 27.5487 161.643 30.8066V31.5103Z" fill="#213E26"/>
<path opacity="0.8" d="M177.823 37.3744C175.465 37.3744 174.916 35.4457 174.916 32.5527H176.726C179.906 32.5527 182.757 31.7187 182.757 28.9821C182.757 26.0109 179.632 25.0205 176.479 25.0205C172.119 25.0205 169.35 27.4443 169.35 31.5102C169.35 35.8106 172.202 37.9999 176.999 37.9999C180.262 37.9999 182.292 36.2537 182.812 33.4649L182.319 33.3867L182.264 33.6213C181.77 35.9149 179.988 37.3744 177.823 37.3744ZM174.888 30.207C174.888 26.1673 175.465 25.4896 176.479 25.4896C177.219 25.4896 177.768 26.1933 177.768 28.956C177.768 30.8586 177.301 32.0836 175.574 32.0836H174.888V30.207Z" fill="#213E26"/>
</g>
</svg>
